# xmcd
#
# Track frame offsets:
#	150
#	17978
#	31505
#	47530
#	64777
#	75023
#	87551
#	98535
#	110572
#	126280
#	141539
#	157556
#	171161
#	181807
#	197891
#	213142
#	228705
#	242279
#	253398
#	267435
#
# Disc length: 3734 seconds
#
# Revision: 0
# Processed by: cddbd v1.5.2PL0 Copyright (c) Steve Scherf et al.
# Submitted via: EasyCDDAExtractor 16.0.6.1
#
DISCID=050e9414
DTITLE=Συλλογικός δίσκος - Τα τραγούδια του τζούκ μποξ 4
DYEAR=2010
DGENRE=Ποικίλη
TTITLE0=Καζαντζίδης Στέλιος - Δεθα ξαναγαπήσω [Μ. Λοΐζος-Λ. Παπαδόπουλος]
TTITLE1=Μπέλλου Σωτηρία - Ξημερώνει και βραδιάζει [Βασίλης Τσιτσάνης]
TTITLE2=Νταράλας Λουκάς - Το πλουσιόπαιδο [Μ. Χιώτης-Χ. Κολοκοτρώνης]
TTITLE3=Λίντα Μαίρη - Σβήσε τη φλόγα [Μανώλης Χιώτης]
TTITLE4=Κουμιώτη Ρένα - Πρώτη φορά [Μ. Πλέσσας-Λ. Παπαδόπουλος]
TTITLE5=Πουλόπουλος Γιάννης - Γειτονάκι μου [Λ. Κόκοτος-Ά. Δασκαλόπουλος]
TTITLE6=Γλυκερία - Τι γλυκό να σ' αγαπούν [Γ. Ζαμπέτας-Λ. Παπαδόπουλος]
TTITLE7=Μοσχολιού Βίκυ - Ο μήνας έχει εννιά [Μ. Σουγιούλ-Γ. Τζαβέλλας]
TTITLE8=Κερμανίδης Πόλυς - Άσπρο πουκάμισο φορώ [Βασίλης Τσιτσάνης]
TTITLE9=Αγγελόπουλος Μανώλης - Ρίξτε στο  γυαλί φαρμάκι [Α.Καλδάρας-Ε.Παπαγιαν
TTITLE9=νοπούλου]
TTITLE10=Ζαγοραίος Σπύρος - Άναψε το τσιγάρο [Γ. Κλουβάτος-Χ. Βασιλειάδης]
TTITLE11=Βιτάλη Ελένη - Αλεξανδριανή φελάχα [Δ. Σέμσης-Ρ. Εσκενάζυ]
TTITLE12=Μουφλουζέλης Γιώργος - Εγώ δεν έχω βγάλει το σχολείο [Γιώργος Μουφλου
TTITLE12=ζέλης]
TTITLE13=Νικολαΐδης Απόστολος - Οι παπατζήδες [Τόλης Χάρμας]
TTITLE14=Γαβαλάς Πάνος-Κούρτη Ρία - Ο μαχαραγιάς [Σ. Τζουανάκος-Ν. Γκούμας]
TTITLE15=Μενιδιάτης Μιχάλης - Για το χατήρι μιάς παλιάς αγάπης [Γ. Κόρος-Πόπη 
TTITLE15=Πασβάντη]
TTITLE16=Διονυσίου Άγγελος - Γιατί καλέ γειτόνισσα [Άκης Πάνου]
TTITLE17=Μαρινέλλα - Άμα δείτε το φεγγάρι [Μ. Πλέσσας-Λ. Παπαδόπουλος]
TTITLE18=Μπουλουγουράς Γιώργος - Χαμένη πολιτεία [Γ. Γεωργόπουλος-Λάκης Τσώλης
TTITLE18=]
TTITLE19=Ψυχογιός Κώστας - Ριγέ σακάκι [Κώστας Ψυχογιός]
EXTD=
EXTT0=
EXTT1=
EXTT2=
EXTT3=
EXTT4=
EXTT5=
EXTT6=
EXTT7=
EXTT8=
EXTT9=
EXTT10=
EXTT11=
EXTT12=
EXTT13=
EXTT14=
EXTT15=
EXTT16=
EXTT17=
EXTT18=
EXTT19=
PLAYORDER=
